<svg id="alumno" xmlns="http://www.w3.org/2000/svg" viewBox="0 0 400 400"><defs><style>.cls-1{stroke:#000;stroke-miterlimit:10;}</style></defs><title>alumno</title><path id="alumno-2" data-name="alumno" class="cls-1" d="M190,57.84c-2.1,2.2-4.4,3.5-5.9,3.5-3.8,0-15.4,3.8-22.2,7.2-9.1,4.6-20.2,16.3-25.4,26.8a95.11,95.11,0,0,0-8.7,33.5c-.3,4.4-.8,10.1-1.1,12.7-.4,4.6-.3,4.8,3.3,7.2a22.57,22.57,0,0,0,7.5,3.1c4.1.8,3.8.1,5.3,15,.4,3.3.8,6.9,1.1,8,.4,1.7.2,1.6-1.3-.5-1-1.3-4.6-6-8-10.3l-6.1-7.8-.8,5.7a42.5,42.5,0,0,0,3.8,22c2.3,4.8,9.1,11.7,13.3,13.6,1.4.6,2.5,1.8,2.5,2.7a22.15,22.15,0,0,0,2,5.9l2,4.3-2.2,4.2c-1.1,2.3-5.4,8.7-9.5,14.2l-7.4,10,6.3.8c5.6.6,17.9-.9,23.1-2.9.9-.3,1.8,1.7,2.9,6.7,1.8,7.6,4,11.5,15.8,27.9,4.1,5.8,9.8,14.7,12.7,19.9l5.2,9.3,3.7-7.3c4.5-9.1,9-15.7,18.4-27.4,8.6-10.7,12-17.5,12.7-25.7.6-5.8.7-6,3.2-5.5,5.7,1.2,12.1,4.8,13.6,7.7,2.5,4.9,5.5,19,7,33.6.8,7.6,1.2,14,1,14.3s-7.1-2.8-15.2-6.7l-14.8-7.1-3.3,3.7a184.92,184.92,0,0,0-24.2,36.1l-2.2,4.4-1.7-2.9c-1-1.6-4.2-7-7.1-11.9-5.8-9.8-18.4-28-20.1-29-.5-.4-7,2.4-14.4,6.2s-13.6,6.5-14,6.1c-.7-.7,3-34.7,4.4-41,.9-3.7.8-3.8-1.8-3.2-4.3,1.1-31,12.3-39.1,16.5-13.3,6.8-18.5,12.6-23.8,26-3.1,7.6-6.6,22.9-7.7,33.5l-.7,6,10.3,3.2c58.5,17.7,137.5,20.5,203.9,7.2,15.4-3.1,40-9.6,41.3-10.9,1-1-1-14.5-3.9-25.9-4.9-19.6-13.9-33-27.8-41.6-8.2-5.2-28.1-14.8-34.5-16.7-6-1.8-14.2-10.8-16.5-18.3-3.3-10.4.4-22.7,8.3-28.1,9.7-6.6,16-21.2,14.5-33.2-.3-2.9-.9-5.3-1.3-5.3s-3.1,3.4-6.1,7.6-6.3,8.6-7.3,9.7c-2,2.4-2,4.1-.1-15.5l.6-6.7,3.9-.6a23.12,23.12,0,0,0,7.1-2.9l3.3-2.2-.2-13c-.4-23.8-6.8-40.9-20.8-54.9a51.59,51.59,0,0,0-14.5-10.7c-7.7-3.7-17.7-6.8-22.4-6.8-1.4,0-2.6-.5-2.6-1s-1.1-2.2-2.5-3.5c-1.8-1.9-3.5-2.5-6.9-2.5C194.12,54.34,192.92,54.84,190,57.84Zm28.3,67c11.2,1.9,20.8,4.6,28.2,8,4.7,2.3,4.9,2.5,1.8,2-29.9-5-69.2-5.4-94.5-.9-9.9,1.7-10.6,1.7-7.5-.1,6.2-3.6,24.4-8.4,37.5-9.9C192,123,209.82,123.54,218.32,124.84Zm-20.6,29.8c16.5-.1,33.5-.4,37.9-.8l8-.7-.6,10.3c-.8,13-4.6,29.8-8.5,37.6-6.3,12.5-21,22.4-34.2,23.1a40.77,40.77,0,0,1-22.5-5.3c-6.4-3.7-14-12.1-17.5-19.3-3.7-7.5-7.3-23.8-8.4-37.5l-.7-8.9,8.3.8C164.12,154.34,181.32,154.64,197.72,154.64Zm28,79.9c-1.1,8.4-3.4,14.5-7.1,19.5-2.1,2.7-6.7,8.8-10.2,13.4a104.89,104.89,0,0,0-7.9,11.6c-.9,1.8-1.9,3.3-2.2,3.3s-1.6-1.8-2.9-4a148.06,148.06,0,0,0-10.3-14.1c-4.4-5.5-9.1-12.5-10.5-15.5-2.3-5.2-4.4-17.4-2.9-17.4a9.8,9.8,0,0,1,2.9,1.5c11.4,7.4,32.8,7.2,46.7-.5C226.22,229.64,226.42,229.74,225.72,234.54Z"/></svg>