<?xml version="1.0" standalone="no"?>
<!DOCTYPE svg PUBLIC "-//W3C//DTD SVG 20010904//EN"
 "http://www.w3.org/TR/2001/REC-SVG-20010904/DTD/svg10.dtd">
<svg version="1.0" xmlns="http://www.w3.org/2000/svg"
 width="1536.000000pt" height="1024.000000pt" viewBox="0 0 1536.000000 1024.000000"
 preserveAspectRatio="xMidYMid meet">

<g transform="translate(0.000000,1024.000000) scale(0.100000,-0.100000)"
fill="#000000" stroke="none">
<path d="M7683 9220 c-133 -20 -266 -83 -335 -156 -68 -74 -125 -197 -153
-330 -9 -43 -21 -85 -28 -93 -7 -8 -49 -38 -94 -68 -90 -57 -101 -79 -58 -107
37 -24 127 -20 435 20 440 57 683 51 848 -22 30 -13 58 -22 61 -18 3 3 8 59
10 125 6 209 -47 366 -165 485 -122 123 -341 192 -521 164z m-144 -178 c-80
-83 -120 -149 -154 -251 -21 -62 -25 -66 -55 -69 -31 -3 -32 -2 -25 25 18 74
73 182 120 237 44 52 151 133 179 135 5 1 -25 -34 -65 -77z"/>
<path d="M11340 9047 c0 -4 59 -295 67 -334 4 -17 0 -23 -21 -29 -21 -5 -40 5
-106 54 -94 71 -229 141 -288 149 -38 5 -42 3 -47 -20 -15 -59 39 -241 96
-322 l40 -58 -30 -56 c-16 -31 -35 -78 -42 -106 -21 -86 -56 -153 -111 -212
l-53 -56 45 7 c24 4 64 16 88 26 41 18 44 18 37 2 -4 -9 -22 -82 -41 -162 -43
-184 -57 -232 -105 -357 -32 -81 -44 -102 -63 -107 -13 -3 -31 -17 -40 -32
-17 -25 -17 -25 3 -15 55 30 181 -2 345 -87 111 -59 339 -221 344 -247 2 -8
-2 -23 -8 -34 -21 -40 -62 -27 -200 64 -70 46 -157 100 -193 120 -84 46 -218
95 -261 95 -28 0 -35 -4 -41 -27 -11 -47 -84 -183 -138 -259 -77 -110 -87
-132 -87 -197 0 -50 6 -67 40 -124 22 -36 47 -86 56 -112 40 -112 57 -151 74
-166 28 -25 89 -44 142 -45 35 0 58 -8 90 -29 51 -34 106 -51 167 -51 106 0
175 49 212 151 16 44 33 69 62 92 21 18 53 44 70 58 l30 26 -44 11 c-84 21
-151 124 -134 205 15 73 87 137 153 137 23 0 32 7 45 36 l17 35 40 -22 c36
-21 40 -26 35 -51 -5 -21 -1 -35 18 -58 14 -16 30 -52 37 -79 16 -68 35 -67
117 9 69 63 76 66 252 110 47 11 113 35 148 52 112 55 238 189 307 325 71 143
101 358 74 536 -8 48 -12 87 -8 87 9 0 59 -88 84 -148 13 -31 33 -100 45 -152
40 -175 52 -215 91 -297 52 -112 116 -208 205 -308 42 -47 73 -85 70 -85 -19
0 -120 60 -176 106 -85 68 -157 164 -211 282 -24 50 -46 91 -51 89 -4 -1 -23
-38 -42 -81 -56 -129 -129 -221 -245 -306 l-67 -51 24 -60 c13 -33 38 -124 55
-201 48 -227 124 -419 170 -432 40 -10 189 -6 301 9 369 49 701 228 888 478
144 194 202 408 150 558 -10 30 -44 105 -75 167 -31 63 -56 116 -56 119 0 3
23 -16 52 -42 101 -90 198 -127 289 -108 l44 10 -30 13 c-112 51 -214 157
-330 343 -77 123 -181 256 -312 397 -125 135 -230 220 -324 264 -82 38 -145
54 -132 33 4 -6 42 -64 84 -127 149 -223 188 -331 195 -540 l4 -125 -19 86
c-44 193 -82 281 -206 469 -184 279 -265 367 -400 432 -123 59 -205 71 -425
64 -172 -6 -353 -21 -392 -32 -15 -5 -15 -9 3 -62 19 -52 39 -242 27 -242 -3
0 -18 39 -33 88 -44 142 -86 211 -186 306 -58 56 -110 95 -151 115 -63 30
-108 46 -108 38z m583 -347 c83 -56 135 -161 167 -338 10 -59 28 -133 40 -165
15 -43 18 -62 10 -77 -8 -15 -3 -39 25 -109 89 -229 127 -454 108 -639 -7 -59
-17 -124 -23 -144 -13 -44 -67 -125 -97 -145 -21 -14 -21 -14 -7 28 26 73 37
198 30 329 -7 135 -15 182 -67 394 l-34 139 -50 37 c-93 70 -113 104 -96 165
l10 36 -47 20 c-26 12 -111 43 -189 69 -165 57 -177 62 -220 103 -36 34 -49
78 -38 134 l7 38 24 -51 c31 -65 52 -76 289 -153 105 -34 196 -65 204 -68 12
-5 13 9 7 83 -10 132 -39 225 -96 312 -27 40 -16 41 43 2z m591 -36 c37 -9 89
-31 114 -48 88 -59 188 -211 247 -373 28 -77 34 -82 -69 56 -67 91 -170 195
-238 242 -59 40 -174 94 -265 124 -29 9 -53 19 -53 22 0 11 197 -6 264 -23z
m-1255 -345 c-27 -150 -60 -204 -173 -280 -78 -52 -90 -49 -35 9 25 26 60 66
78 90 32 41 131 245 131 270 0 6 4 12 9 12 5 0 0 -45 -10 -101z m2205 -433
c77 -154 96 -270 96 -585 0 -222 -1 -226 -47 -116 -32 76 -52 186 -68 387 -16
187 -34 286 -79 418 l-25 75 39 -44 c21 -25 59 -86 84 -135z m-1789 134 c-3
-5 -31 -17 -63 -26 -31 -9 -79 -23 -107 -31 -27 -8 -66 -27 -86 -43 -41 -32
-52 -30 -42 9 16 69 82 100 211 101 57 0 91 -4 87 -10z m318 -40 c34 -23 38
-28 34 -60 -14 -113 -269 -670 -306 -670 -4 0 -27 13 -49 30 l-42 30 105 208
c94 188 182 393 200 465 4 15 10 27 14 25 3 -2 23 -14 44 -28z m-407 -64 c8
-21 -16 -66 -47 -88 -22 -16 -35 -18 -88 -12 l-62 7 37 38 c53 54 148 86 160
55z m78 -677 l75 -52 -27 -47 c-15 -25 -34 -57 -43 -71 l-16 -24 -62 29 c-34
17 -69 38 -78 48 -15 17 -15 22 12 81 33 70 44 87 56 87 4 0 42 -23 83 -51z
m-639 -282 c32 -27 44 -96 26 -150 -12 -35 -85 -127 -101 -127 -4 0 3 22 16
50 28 58 31 106 8 138 -19 27 -39 28 -104 3 -27 -11 -50 -17 -50 -14 0 15 75
93 103 107 44 22 71 20 102 -7z"/>
<path d="M12022 8093 c2 -10 14 -19 26 -21 19 -3 23 1 20 15 -2 10 -14 19 -26
21 -19 3 -23 -1 -20 -15z"/>
<path d="M2827 8965 c-21 -22 -44 -35 -59 -35 -38 0 -154 -38 -222 -72 -91
-46 -202 -163 -254 -268 -47 -96 -78 -217 -87 -335 -3 -44 -8 -101 -11 -127
-4 -46 -3 -48 33 -72 21 -14 55 -28 75 -31 41 -8 38 -1 53 -150 4 -33 8 -69
11 -80 4 -17 2 -16 -13 5 -10 13 -46 60 -80 103 l-61 78 -8 -57 c-8 -70 7
-158 38 -220 23 -48 91 -117 133 -136 14 -6 25 -18 25 -27 0 -9 9 -35 20 -59
l20 -43 -22 -42 c-11 -23 -54 -87 -95 -142 l-74 -100 63 -8 c56 -6 179 9 231
29 9 3 18 -17 29 -67 18 -76 40 -115 158 -279 41 -58 98 -147 127 -199 l52
-93 37 73 c45 91 90 157 184 274 86 107 120 175 127 257 6 58 7 60 32 55 57
-12 121 -48 136 -77 25 -49 55 -190 70 -336 8 -76 12 -140 10 -143 -3 -2 -71
28 -152 67 l-148 71 -33 -37 c-85 -96 -178 -235 -242 -361 l-22 -44 -17 29
c-10 16 -42 70 -71 119 -58 98 -184 280 -201 290 -5 4 -70 -24 -144 -62 -73
-37 -136 -65 -140 -61 -7 7 30 347 44 410 9 37 8 38 -18 32 -43 -11 -310 -123
-391 -165 -133 -68 -185 -126 -238 -260 -31 -76 -66 -229 -77 -335 l-7 -60
103 -32 c585 -177 1375 -205 2039 -72 154 31 400 96 413 109 10 10 -10 145
-39 259 -49 196 -139 330 -278 416 -82 52 -281 148 -345 167 -60 18 -142 108
-165 183 -33 104 4 227 83 281 97 66 160 212 145 332 -3 29 -9 53 -13 53 -3 0
-31 -34 -61 -76 -30 -42 -63 -86 -73 -97 -20 -24 -20 -41 -1 155 l6 67 39 6
c21 4 53 17 71 29 l33 22 -2 130 c-4 238 -68 409 -208 549 -50 50 -92 81 -145
107 -77 37 -177 68 -224 68 -14 0 -26 5 -26 10 0 6 -11 22 -25 35 -18 19 -35
25 -69 25 -38 0 -50 -5 -79 -35z m283 -670 c112 -19 208 -46 282 -80 47 -23
49 -25 18 -20 -299 50 -692 54 -945 9 -99 -17 -106 -17 -75 1 62 36 244 84
375 99 82 9 260 4 345 -9z m-206 -298 c165 1 335 4 379 8 l80 7 -6 -103 c-8
-130 -46 -298 -85 -376 -63 -125 -210 -224 -342 -231 -76 -5 -161 15 -225 53
-64 37 -140 121 -175 193 -37 75 -73 238 -84 375 l-7 89 83 -8 c46 -4 218 -7
382 -7z m280 -799 c-11 -84 -34 -145 -71 -195 -21 -27 -67 -88 -102 -134 -35
-46 -71 -99 -79 -116 -9 -18 -19 -33 -22 -33 -3 0 -16 18 -29 40 -12 22 -58
85 -103 141 -44 55 -91 125 -105 155 -23 52 -44 174 -29 174 4 0 17 -7 29 -15
114 -74 328 -72 467 5 49 27 51 26 44 -22z"/>
<path d="M7784 8460 c-84 -35 -208 -51 -359 -46 -55 1 -111 1 -126 -1 l-25 -5
13 -116 c18 -158 37 -233 79 -312 51 -97 109 -154 171 -169 46 -11 57 -10 127
13 83 28 170 70 226 108 63 43 65 43 33 2 -82 -104 -213 -176 -330 -182 -54
-3 -73 -8 -73 -18 0 -8 14 -57 31 -110 17 -53 29 -97 27 -97 -2 -1 -40 -21
-85 -44 -45 -23 -84 -39 -87 -34 -3 4 -1 72 4 151 6 79 8 145 7 147 -2 2 -47
-19 -99 -47 -52 -28 -156 -73 -229 -101 -74 -28 -145 -61 -158 -72 -12 -12
-51 -81 -86 -153 -53 -109 -95 -185 -213 -384 -10 -16 -62 58 -150 215 -26 47
-49 85 -52 85 -3 0 -16 -25 -29 -55 -49 -113 -179 -200 -297 -199 l-61 0 43
-98 c65 -145 130 -271 187 -362 27 -45 68 -110 90 -146 44 -74 62 -90 132
-127 67 -35 140 -36 215 -1 42 19 82 53 168 143 l114 118 -7 56 c-10 73 -7
336 4 381 l8 35 7 -50 c4 -27 17 -99 27 -160 21 -119 51 -381 69 -590 16 -201
21 -255 24 -255 2 0 61 -9 132 -19 71 -11 156 -22 189 -25 101 -9 386 -9 394
0 5 5 34 194 66 419 31 226 61 427 66 447 5 21 19 42 29 48 13 7 116 11 274
11 205 0 256 3 266 14 22 26 -23 37 -133 31 -148 -8 -180 -7 -191 4 -6 6 2 15
25 24 19 8 40 26 47 40 12 26 12 26 137 26 l124 0 16 -30 c9 -17 24 -30 34
-30 23 0 38 -18 43 -50 3 -24 5 -25 98 -28 146 -4 157 -24 126 -212 -26 -152
-26 -152 -2 -145 12 3 44 8 71 11 l50 6 -40 -27 c-22 -15 -44 -31 -49 -36 -5
-4 5 -24 24 -45 46 -53 60 -93 59 -171 -2 -111 -12 -128 -27 -44 -14 82 -38
134 -79 172 -43 40 -69 45 -95 17 -15 -16 -65 -38 -143 -62 -132 -42 -145 -49
-145 -79 0 -19 5 -20 117 -15 133 6 130 -4 -8 -27 -136 -22 -139 -23 -139 -43
0 -21 28 -49 82 -81 20 -12 46 -37 57 -57 23 -39 72 -64 125 -64 51 0 262 37
336 60 87 26 167 76 207 128 39 52 67 140 58 183 -7 29 -89 223 -305 719 -56
129 -118 272 -137 316 -43 102 -91 182 -123 206 -14 10 -104 46 -200 82 -221
80 -290 112 -365 168 l-60 45 -17 -87 c-21 -103 -95 -320 -113 -326 -7 -3 -49
13 -94 35 -44 23 -88 41 -96 41 -15 0 -15 3 0 28 9 15 46 61 82 102 35 41 90
108 121 148 56 73 56 74 54 138 -4 95 12 142 52 159 39 17 117 98 145 152 11
22 23 63 27 90 5 44 3 53 -16 71 -24 22 -112 48 -129 37 -6 -3 -30 -67 -53
-141 -37 -118 -44 -133 -55 -118 -9 13 -13 58 -13 151 l0 133 -52 0 c-29 0
-69 2 -88 5 -24 3 -57 -4 -106 -25z m563 -858 c-15 -15 -27 -31 -27 -35 0 -4
19 -37 41 -73 23 -36 38 -69 33 -73 -96 -79 -131 -106 -194 -153 -41 -30 -82
-58 -90 -63 -16 -10 76 96 165 189 l56 58 -41 78 c-44 86 -46 92 -27 85 6 -3
26 -1 42 4 17 5 39 10 49 10 18 1 17 -2 -7 -27z m-1120 -87 c36 -17 51 -30 46
-38 -4 -7 -22 -31 -40 -55 -18 -24 -33 -48 -33 -54 0 -6 19 -34 43 -62 47 -57
117 -153 117 -162 0 -8 -78 58 -157 133 -35 32 -63 63 -63 70 0 6 16 34 36 63
l36 52 -26 39 c-15 21 -23 39 -20 39 4 0 31 -11 61 -25z m623 -33 c0 -10 -48
-80 -82 -120 -15 -18 -28 -27 -28 -19 0 30 33 113 52 130 20 17 58 24 58 9z
m-242 -57 c21 -86 11 -94 -30 -25 -39 66 -40 83 -5 78 17 -2 25 -14 35 -53z
m-153 -62 c3 -21 26 -126 51 -233 65 -275 73 -316 76 -350 1 -16 5 -30 8 -30
8 0 97 110 137 170 44 66 119 218 174 355 27 66 53 120 59 119 30 -3 32 -5 25
-31 -13 -54 -106 -264 -156 -356 -64 -114 -89 -151 -173 -251 l-66 -80 47 -25
c43 -23 48 -30 51 -65 2 -22 1 -50 -2 -62 -8 -30 -44 -64 -68 -64 -15 0 -18
-9 -18 -63 0 -89 -11 -101 -91 -98 -35 1 -69 7 -76 13 -10 8 -13 51 -13 163 0
174 5 189 75 203 l40 8 -1 65 c-1 35 -18 134 -39 219 -74 314 -89 398 -75 415
20 24 29 18 35 -22z"/>
<path d="M7480 6507 c0 -69 11 -84 52 -71 16 5 19 14 16 67 -3 62 -3 62 -35
65 l-33 3 0 -64z"/>
<path d="M5636 7745 c-38 -38 -15 -62 123 -127 69 -32 127 -61 129 -63 2 -2
-21 -40 -52 -83 -80 -114 -76 -149 29 -220 35 -24 86 -54 114 -67 27 -14 55
-34 61 -45 8 -16 21 -20 60 -20 56 0 87 11 148 54 50 35 102 111 102 150 0 68
-121 264 -183 297 -26 14 -156 53 -312 93 -184 47 -200 50 -219 31z"/>
<path d="M11425 6921 c-104 -43 -64 -191 51 -191 31 0 80 47 90 84 18 74 -65
138 -141 107z"/>
<path d="M8059 6759 c-9 -5 -30 -135 -88 -549 -11 -80 -25 -176 -31 -214 -9
-61 -9 -71 7 -88 17 -19 29 -19 336 -12 176 4 333 10 351 14 l31 7 -30 12
c-16 6 -53 35 -80 64 -28 29 -67 65 -88 80 -57 43 -71 69 -58 109 6 18 13 45
16 60 11 55 45 79 186 128 l133 47 23 159 c13 88 22 166 20 174 -2 13 -50 15
-361 15 -197 0 -362 -3 -367 -6z"/>
<path d="M11590 6721 c-25 -25 -54 -51 -65 -57 -18 -10 -16 -15 39 -77 181
-207 483 -375 796 -443 121 -27 449 -27 570 0 176 38 330 104 466 197 68 47
126 99 110 99 -4 0 -48 -18 -99 -39 -287 -122 -546 -165 -817 -135 -343 38
-600 159 -850 400 l-105 102 -45 -47z"/>
<path d="M3350 4583 c-61 -23 -95 -72 -106 -151 -6 -46 -4 -53 20 -75 17 -16
26 -35 26 -54 0 -26 6 -33 42 -49 23 -10 57 -29 75 -41 26 -18 34 -19 40 -8 5
7 19 15 33 17 30 4 70 69 70 116 0 34 3 37 63 47 47 8 48 29 3 50 -23 11 -39
29 -49 53 -17 43 -50 76 -90 91 -30 11 -101 13 -127 4z m40 -224 c0 -17 -4
-28 -10 -24 -5 3 -10 17 -10 31 0 13 5 24 10 24 6 0 10 -14 10 -31z"/>
<path d="M9774 4366 c-79 -35 -97 -96 -92 -315 2 -134 6 -172 20 -198 42 -77
151 -98 226 -43 23 17 42 37 42 45 0 8 5 15 10 15 6 0 10 -16 10 -36 0 -62
-83 -124 -166 -124 -64 0 -143 51 -176 113 -19 36 -23 62 -26 175 l-4 132
-169 0 c-131 0 -178 -4 -207 -15 -49 -21 -81 -52 -103 -100 -18 -38 -19 -92
-19 -1133 0 -1055 1 -1094 19 -1130 24 -47 56 -77 103 -97 33 -13 186 -15
1330 -15 1237 0 1295 1 1333 19 47 22 89 64 104 104 8 19 11 374 11 1122 0
748 -3 1103 -11 1122 -15 40 -57 82 -104 104 -35 16 -68 19 -277 19 l-238 0 0
54 c0 66 -15 113 -48 148 -70 75 -202 56 -246 -36 -13 -28 -16 -69 -16 -224 0
-180 1 -191 23 -222 34 -51 67 -71 118 -72 57 -1 116 26 139 64 19 31 30 27
30 -10 0 -59 -84 -122 -165 -122 -75 0 -168 64 -194 133 -6 16 -11 86 -11 158
l0 129 -512 2 -513 3 -5 70 c-7 86 -28 129 -80 155 -45 23 -92 25 -136 6z m86
-142 c16 -41 13 -277 -4 -299 -12 -16 -16 -17 -30 -6 -13 11 -16 38 -16 166 0
83 3 155 7 158 14 15 34 6 43 -19z m1401 -1 c13 -35 5 -291 -9 -305 -6 -6 -18
-8 -26 -5 -14 5 -16 30 -16 165 0 87 3 162 7 165 14 15 34 6 44 -20z m617
-1325 l-3 -612 -189 -43 c-105 -23 -195 -48 -202 -55 -7 -7 -31 -80 -54 -163
-23 -82 -49 -158 -58 -167 -14 -17 -78 -18 -1064 -18 l-1048 0 0 835 0 835
1310 0 1310 0 -2 -612z"/>
<path d="M9900 3120 l0 -180 175 0 175 0 0 180 0 180 -175 0 -175 0 0 -180z"/>
<path d="M10370 3120 l0 -180 175 0 175 0 0 180 0 180 -175 0 -175 0 0 -180z"/>
<path d="M10842 3123 l3 -178 178 -3 177 -2 0 180 0 180 -180 0 -180 0 2 -177z"/>
<path d="M11280 3166 c0 -73 3 -154 6 -180 l7 -46 173 0 174 0 0 180 0 180
-180 0 -180 0 0 -134z"/>
<path d="M9472 2663 l3 -178 174 1 174 0 4 177 4 177 -181 0 -180 0 2 -177z"/>
<path d="M9910 2670 c0 -93 0 -173 0 -177 0 -10 263 -16 308 -8 l32 6 0 174 0
175 -170 0 -170 0 0 -170z"/>
<path d="M10367 2833 c-9 -8 -9 -61 -1 -101 4 -20 14 -32 29 -36 12 -3 47 -29
76 -56 30 -28 60 -56 67 -62 10 -9 32 7 98 73 l84 84 0 52 0 53 -173 0 c-96 0
-177 -3 -180 -7z"/>
<path d="M10847 2833 c-14 -13 -6 -23 26 -36 40 -17 127 -112 128 -141 3 -55
-5 -74 -54 -123 l-51 -53 152 0 152 0 0 180 0 180 -173 0 c-96 0 -177 -3 -180
-7z"/>
<path d="M11282 2663 l3 -178 178 -3 177 -2 0 180 0 180 -180 0 -180 0 2 -177z"/>
<path d="M10682 2588 l-133 -131 -78 77 c-61 61 -83 77 -102 74 -23 -3 -24 -7
-27 -82 l-3 -80 98 -98 c54 -54 103 -97 109 -96 23 6 384 362 384 379 0 10
-14 34 -31 54 -52 59 -66 53 -217 -97z"/>
<path d="M9472 2204 l3 -176 175 1 175 0 3 176 2 175 -180 0 -180 0 2 -176z"/>
<path d="M9910 2206 c0 -172 0 -174 23 -180 29 -8 174 -8 257 0 l65 6 0 174 0
174 -172 0 -173 0 0 -174z"/>
<path d="M10850 2205 l0 -175 178 0 177 0 0 173 0 172 -177 3 -178 2 0 -175z"/>
<path d="M10370 2168 l0 -135 153 -6 c83 -4 162 -4 175 -1 21 6 22 10 22 141
0 155 9 149 -92 56 -79 -74 -99 -73 -189 14 l-69 66 0 -135z"/>
<path d="M3236 4197 c-34 -44 -72 -133 -96 -220 -18 -67 -61 -304 -64 -354 -1
-19 -7 -23 -33 -23 -37 0 -68 -33 -78 -83 -13 -64 -15 -67 -48 -67 -18 0 -59
7 -92 15 -168 40 -361 27 -491 -34 -212 -99 -261 -293 -158 -622 l36 -115 -22
-52 c-15 -36 -43 -71 -85 -110 -88 -81 -89 -83 -81 -233 9 -165 -3 -233 -56
-322 -39 -64 -40 -70 -29 -106 9 -32 20 -43 56 -60 51 -24 54 -35 24 -86 -29
-48 -20 -101 19 -116 31 -12 247 -18 257 -7 13 12 -3 51 -47 118 -24 36 -49
79 -57 95 -22 48 -25 207 -7 313 19 110 44 166 94 214 38 36 200 147 306 209
64 38 107 85 156 172 35 63 45 71 35 29 -6 -28 -3 -30 102 -79 59 -28 180 -75
268 -104 l160 -52 137 -1 c85 -1 138 -5 138 -11 0 -5 -5 -37 -10 -70 -6 -33
-15 -137 -20 -232 -9 -176 -19 -218 -60 -270 -11 -14 -20 -39 -20 -55 0 -36
40 -78 73 -78 42 0 52 -24 28 -63 -24 -39 -27 -85 -8 -110 26 -34 271 -44 284
-11 6 16 -32 84 -93 167 -97 131 -81 258 71 572 29 61 57 116 63 123 7 10 43
-5 158 -64 82 -43 162 -91 178 -106 26 -27 28 -33 22 -78 -9 -67 -35 -126 -80
-179 -32 -38 -37 -49 -31 -78 l6 -34 -48 6 c-89 12 -110 -31 -82 -170 11 -49
23 -93 27 -97 20 -20 261 182 283 239 6 15 22 75 35 131 13 57 35 129 50 160
28 61 34 126 15 175 -6 15 -37 58 -69 95 -32 38 -80 104 -107 147 -27 44 -50
82 -52 84 -2 3 -16 -7 -31 -21 -15 -14 -40 -34 -57 -44 -32 -21 -31 -16 16 48
39 55 52 114 47 215 -3 49 -9 97 -13 108 -6 16 -5 17 4 9 7 -7 26 -49 41 -95
16 -46 29 -81 30 -77 3 50 133 445 153 464 8 8 215 -45 252 -65 22 -11 45 -21
52 -21 7 0 20 -12 30 -27 47 -77 88 -91 171 -58 32 13 43 27 70 81 l33 66 -37
72 c-20 39 -40 75 -45 81 -12 12 -69 -8 -133 -47 -36 -22 -51 -27 -60 -18 -15
15 29 52 106 88 32 15 58 32 58 37 0 6 -18 48 -40 95 -39 83 -50 128 -30 115
6 -3 10 4 10 17 0 43 -21 99 -50 131 l-28 33 19 69 c10 38 17 70 15 72 -6 7
-99 -43 -123 -66 -12 -12 -31 -21 -43 -21 -17 0 -20 6 -20 48 l-1 47 -42 -46
c-41 -44 -45 -46 -115 -53 -168 -17 -341 -90 -505 -214 l-102 -78 -45 53 c-36
42 -56 56 -97 69 -33 9 -70 31 -101 59 -46 41 -50 48 -55 102 -13 124 -49 182
-161 255 -73 47 -97 48 -130 5z m132 -264 c29 -48 52 -91 53 -97 0 -6 33 -35
72 -64 40 -30 91 -69 114 -87 39 -30 45 -32 73 -22 25 10 34 8 57 -9 16 -12
34 -34 42 -49 13 -26 12 -30 -9 -47 -41 -33 -68 -33 -108 -1 -23 19 -36 38
-34 49 2 14 -29 43 -118 108 -66 49 -120 94 -120 101 0 6 -20 53 -45 104 -49
100 -49 101 -37 101 5 0 32 -39 60 -87z m1217 -255 c24 -97 55 -188 81 -240
20 -39 21 -47 8 -52 -19 -7 -47 38 -80 134 -14 41 -31 88 -38 104 l-12 29 -48
-84 c-26 -46 -50 -96 -53 -111 -8 -40 -23 -34 -23 8 0 24 12 56 34 93 63 103
74 140 74 239 -1 57 4 103 13 124 14 32 14 30 21 -74 4 -59 14 -136 23 -170z
m-1047 -49 l57 -41 -50 7 c-51 7 -75 25 -75 57 0 25 4 24 68 -23z m-38 -162
c99 -156 118 -202 98 -244 -9 -19 -21 -28 -36 -27 -12 0 -52 1 -88 2 -36 1
-63 6 -60 11 8 13 -14 36 -153 156 -122 107 -151 145 -151 199 0 27 4 28 240
33 l65 2 85 -132z m492 57 c234 -81 370 -124 478 -150 102 -25 130 -37 118
-50 -12 -11 -262 48 -408 97 -188 62 -333 121 -338 137 -6 18 7 16 150 -34z
m-256 -268 c22 -84 15 -190 -17 -253 -19 -37 -38 -56 -83 -83 l-58 -34 6 -76
c8 -87 22 -112 76 -140 22 -11 40 -25 40 -30 0 -32 -225 -76 -266 -52 -16 10
-12 12 26 12 60 1 153 23 158 38 2 7 -24 25 -60 42 -99 46 -104 51 -88 102
l14 43 6 -37 c8 -45 26 -68 52 -68 16 0 19 5 15 23 -3 12 -9 44 -13 70 -3 27
-13 51 -20 54 -19 7 -17 32 7 96 16 41 29 59 49 67 15 6 41 26 57 43 58 62 68
145 28 241 -22 55 -23 60 -8 83 l17 25 23 -52 c13 -29 30 -81 39 -114z m-751
98 c9 -53 43 -81 112 -94 33 -7 66 -15 72 -20 7 -4 19 -37 28 -74 16 -74 49
-121 98 -142 l31 -13 -9 -73 c-5 -40 -16 -107 -24 -148 -9 -41 -18 -98 -20
-126 l-5 -51 59 -10 58 -10 -56 -2 c-44 -1 -60 3 -74 19 -18 20 -18 25 -2 124
9 57 17 113 17 124 0 22 9 20 -213 52 -161 24 -212 42 -232 80 -54 104 -1 339
85 382 53 27 67 23 75 -18z m1716 -14 c38 -21 10 -76 -31 -62 -31 11 -37 34
-14 56 18 19 20 19 45 6z"/>
<path d="M6177 4176 c-76 -28 -128 -88 -161 -189 -3 -10 -26 -27 -51 -38 -25
-11 -45 -23 -45 -27 0 -26 31 -32 162 -32 129 0 232 -12 243 -29 2 -4 -62 -7
-142 -7 l-146 1 2 -70 c2 -78 37 -167 72 -186 26 -14 70 -3 143 33 32 16 60
27 63 25 8 -9 -73 -68 -109 -79 -43 -13 -44 -15 -21 -48 40 -58 54 -57 129 12
34 31 44 49 50 84 4 27 11 44 20 44 19 0 80 63 87 90 5 21 -1 29 -48 64 -27
21 0 21 39 1 35 -19 42 -11 52 53 14 91 -14 190 -68 238 -66 61 -193 89 -271
60z"/>
<path d="M6406 3533 c-3 -25 -6 -65 -6 -89 0 -49 -12 -56 -36 -20 -8 14 -22
22 -29 20 -8 -3 -31 -46 -51 -95 -49 -118 -58 -125 -79 -57 -20 70 -30 128
-20 128 5 0 17 -8 27 -17 15 -13 23 -15 36 -7 25 16 27 51 4 63 -15 8 -29 4
-65 -19 -52 -33 -57 -29 -57 51 0 27 -3 49 -7 49 -16 0 -164 -59 -178 -70 -8
-6 -28 -37 -46 -68 -38 -68 -118 -182 -127 -182 -17 0 -178 135 -200 166 -19
28 -48 47 -130 85 -58 28 -112 47 -119 45 -29 -12 -14 -52 32 -84 40 -28 45
-35 38 -59 -10 -41 -6 -63 14 -85 39 -43 106 -61 131 -36 25 25 11 -7 -14 -33
l-27 -28 101 -101 c107 -107 172 -147 219 -135 15 3 57 35 94 71 l67 65 7 -75
c6 -58 2 -103 -13 -188 -11 -62 -19 -114 -17 -116 6 -6 168 -42 190 -42 13 0
27 5 30 10 8 12 25 13 25 1 0 -4 -9 -20 -20 -33 l-19 -25 -98 28 c-54 16 -99
29 -99 29 -1 0 -5 -30 -8 -67 -7 -72 23 -430 48 -576 8 -45 18 -136 22 -203
l7 -121 -29 -31 c-18 -20 -50 -39 -84 -50 -91 -29 -105 -95 -23 -108 54 -8
320 -1 330 9 3 4 11 109 17 233 7 175 7 243 -3 304 -12 69 -11 100 5 230 9 82
19 148 21 146 2 -2 13 -36 24 -77 11 -41 42 -141 69 -224 59 -181 84 -273 105
-384 15 -84 15 -85 -7 -108 -12 -13 -44 -31 -71 -41 -56 -19 -82 -50 -73 -86
5 -21 13 -24 68 -30 35 -4 115 -2 178 4 63 5 121 10 129 10 16 0 11 112 -15
350 -16 150 -25 188 -60 272 -22 52 -24 72 -25 215 0 87 -4 192 -8 233 -4 41
-7 76 -6 78 1 1 53 -56 115 -128 95 -109 119 -130 142 -130 45 0 35 33 -29
103 -110 119 -238 269 -241 281 -2 8 26 21 75 35 169 49 230 97 216 171 -14
80 -173 441 -205 467 -7 7 -50 27 -95 46 -45 19 -95 44 -111 55 l-29 21 -7
-46z m194 -455 c11 -18 20 -36 20 -40 0 -9 -60 -41 -66 -35 -5 4 17 107 23
107 2 0 12 -15 23 -32z m-157 -96 c16 -14 17 -18 3 -27 -14 -10 -14 -17 1 -62
19 -59 14 -79 -22 -93 -54 -20 -79 -13 -108 32 -41 64 -32 118 21 118 43 0 56
13 42 40 -12 22 -11 22 16 16 16 -4 37 -15 47 -24z m87 -290 c0 -8 -128 -44
-220 -62 -48 -9 -56 -9 -67 7 -20 27 -17 46 6 34 19 -11 142 0 220 19 48 11
61 11 61 2z"/>
<path d="M2053 3331 c-78 -26 -211 -111 -249 -157 -49 -60 -79 -134 -109 -273
-15 -68 -35 -143 -46 -167 -28 -67 -95 -161 -168 -238 l-66 -69 40 7 c61 11
155 58 208 105 26 24 47 37 47 31 0 -49 -123 -210 -200 -263 -25 -17 -24 -18
50 -14 132 7 221 66 298 195 33 57 37 45 13 -40 l-18 -67 26 22 c153 129 194
257 164 503 -17 145 -13 202 19 254 17 28 57 103 96 183 7 13 -52 7 -105 -12z"/>
<path d="M2747 2641 c-37 -55 -101 -108 -197 -161 l-85 -47 -3 -97 -2 -97 96
-101 c124 -131 162 -188 174 -263 14 -83 31 -99 102 -92 32 3 60 1 63 -4 3 -4
-1 -22 -10 -38 -8 -17 -15 -46 -15 -66 0 -29 5 -37 28 -46 31 -13 228 -18 255
-7 16 7 16 10 3 43 -31 73 -131 206 -216 288 -126 122 -210 254 -210 332 0 14
16 67 35 117 38 96 63 213 52 241 -3 8 -15 20 -25 26 -17 9 -23 5 -45 -28z"/>
<path d="M5012 2218 c-5 -7 -28 -110 -51 -228 -23 -118 -46 -227 -51 -242 l-9
-28 179 0 179 0 -9 29 c-4 17 -27 126 -51 243 -23 117 -46 219 -52 226 -5 7
-33 12 -67 12 -34 0 -62 -5 -68 -12z"/>
<path d="M4746 1644 c-9 -22 -7 -77 2 -92 7 -9 81 -12 338 -10 l329 3 0 55 0
55 -331 3 c-296 2 -332 1 -338 -14z"/>
</g>
</svg>
