<svg xmlns="http://www.w3.org/2000/svg"
 viewBox="0 0 512 512"
 fill="currentColor">
<g id="caballo"><g id="caballo-2" data-name="caballo"><path class="cls-1" d="M103.75,53.94c0,.4,5.9,29.5,6.7,33.4.4,1.7,0,2.3-2.1,2.9s-4-.5-10.6-5.4c-9.4-7.1-22.9-14.1-28.8-14.9-3.8-.5-4.2-.3-4.7,2-1.5,5.9,3.9,24.1,9.6,32.2l4,5.8-3,5.6a59.71,59.71,0,0,0-4.2,10.6,45.53,45.53,0,0,1-11.1,21.2l-5.3,5.6,4.5-.7a48.88,48.88,0,0,0,8.8-2.6c4.1-1.8,4.4-1.8,3.7-.2-.4.9-2.2,8.2-4.1,16.2-4.3,18.4-5.7,23.2-10.5,35.7-3.2,8.1-4.4,10.2-6.3,10.7a7.56,7.56,0,0,0-4,3.2c-1.7,2.5-1.7,2.5.3,1.5,5.5-3,18.1.2,34.5,8.7,11.1,5.9,33.9,22.1,34.4,24.7a5.8,5.8,0,0,1-.8,3.4c-2.1,4-6.2,2.7-20-6.4-7-4.6-15.7-10-19.3-12-8.4-4.6-21.8-9.5-26.1-9.5-2.8,0-3.5.4-4.1,2.7-1.1,4.7-8.4,18.3-13.8,25.9-7.7,11-8.7,13.2-8.7,19.7,0,5,.6,6.7,4,12.4a72.61,72.61,0,0,1,5.6,11.2c4,11.2,5.7,15.1,7.4,16.6,2.8,2.5,8.9,4.4,14.2,4.5a14.64,14.64,0,0,1,9,2.9,29.34,29.34,0,0,0,16.7,5.1c10.6,0,17.5-4.9,21.2-15.1,1.6-4.4,3.3-6.9,6.2-9.2,2.1-1.8,5.3-4.4,7-5.8l3-2.6-4.4-1.1c-8.4-2.1-15.1-12.4-13.4-20.5,1.5-7.3,8.7-13.7,15.3-13.7,2.3,0,3.2-.7,4.5-3.6l1.7-3.5,4,2.2c3.6,2.1,4,2.6,3.5,5.1-.5,2.1-.1,3.5,1.8,5.8a23.18,23.18,0,0,1,3.7,7.9c1.6,6.8,3.5,6.7,11.7-.9,6.9-6.3,7.6-6.6,25.2-11a85.11,85.11,0,0,0,14.8-5.2c11.2-5.5,23.8-18.9,30.7-32.5,7.1-14.3,10.1-35.8,7.4-53.6-.8-4.8-1.2-8.7-.8-8.7.9,0,5.9,8.8,8.4,14.8a120.11,120.11,0,0,1,4.5,15.2c4,17.5,5.2,21.5,9.1,29.7a122.49,122.49,0,0,0,20.5,30.8c4.2,4.7,7.3,8.5,7,8.5-1.9,0-12-6-17.6-10.6-8.5-6.8-15.7-16.4-21.1-28.2-2.4-5-4.6-9.1-5.1-8.9s-2.3,3.8-4.2,8.1a70.29,70.29,0,0,1-24.5,30.6l-6.7,5.1,2.4,6a182.24,182.24,0,0,1,5.5,20.1c4.8,22.7,12.4,41.9,17,43.2,4,1,18.9.6,30.1-.9,36.9-4.9,70.1-22.8,88.8-47.8,14.4-19.4,20.2-40.8,15-55.8a180.43,180.43,0,0,0-7.5-16.7c-3.1-6.3-5.6-11.6-5.6-11.9s2.3,1.6,5.2,4.2c10.1,9,19.8,12.7,28.9,10.8l4.4-1-3-1.3c-11.2-5.1-21.4-15.7-33-34.3-7.7-12.3-18.1-25.6-31.2-39.7-12.5-13.5-23-22-32.4-26.4-8.2-3.8-14.5-5.4-13.2-3.3.4.6,4.2,6.4,8.4,12.7,14.9,22.3,18.8,33.1,19.5,54l.4,12.5-1.9-8.6c-4.4-19.3-8.2-28.1-20.6-46.9-18.4-27.9-26.5-36.7-40-43.2-12.3-5.9-20.5-7.1-42.5-6.4-17.2.6-35.3,2.1-39.2,3.2-1.5.5-1.5.9.3,6.2s3.9,24.2,2.7,24.2c-.3,0-1.8-3.9-3.3-8.8-4.4-14.2-8.6-21.1-18.6-30.6-5.8-5.6-11-9.5-15.1-11.5C108.25,54.74,103.75,53.14,103.75,53.94Zm58.3,34.7c8.3,5.6,13.5,16.1,16.7,33.8a114.36,114.36,0,0,0,4,16.5c1.5,4.3,1.8,6.2,1,7.7s-.3,3.9,2.5,10.9c8.9,22.9,12.7,45.4,10.8,63.9a132,132,0,0,1-2.3,14.4c-1.3,4.4-6.7,12.5-9.7,14.5-2.1,1.4-2.1,1.4-.7-2.8,2.6-7.3,3.7-19.8,3-32.9-.7-13.5-1.5-18.2-6.7-39.4l-3.4-13.9-5-3.7c-9.3-7-11.3-10.4-9.6-16.5l1-3.6-4.7-2c-2.6-1.2-11.1-4.3-18.9-6.9-16.5-5.7-17.7-6.2-22-10.3-3.6-3.4-4.9-7.8-3.8-13.4l.7-3.8,2.4,5.1c3.1,6.5,5.2,7.6,28.9,15.3,10.5,3.4,19.6,6.5,20.4,6.8,1.2.5,1.3-.9.7-8.3-1-13.2-3.9-22.5-9.6-31.2C155.05,84.84,156.15,84.74,162.05,88.64Zm59.1,3.6a42.52,42.52,0,0,1,11.4,4.8c8.8,5.9,18.8,21.1,24.7,37.3,2.8,7.7,3.4,8.2-6.9-5.6-6.7-9.1-17-19.5-23.8-24.2-5.9-4-17.4-9.4-26.5-12.4-2.9-.9-5.3-1.9-5.3-2.2C194.75,88.84,214.45,90.54,221.15,92.24Zm-125.5,34.5c-2.7,15-6,20.4-17.3,28-7.8,5.2-9,4.9-3.5-.9a118.69,118.69,0,0,0,7.8-9c3.2-4.1,13.1-24.5,13.1-27,0-.6.4-1.2.9-1.2S96.65,121.14,95.65,126.74ZM316.15,170c7.7,15.4,9.6,27,9.6,58.5,0,22.2-.1,22.6-4.7,11.6-3.2-7.6-5.2-18.6-6.8-38.7-1.6-18.7-3.4-28.6-7.9-41.8l-2.5-7.5,3.9,4.4A89.93,89.93,0,0,1,316.15,170Zm-178.9-13.4c-.3.5-3.1,1.7-6.3,2.6s-7.9,2.3-10.7,3.1a30.14,30.14,0,0,0-8.6,4.3c-4.1,3.2-5.2,3-4.2-.9,1.6-6.9,8.2-10,21.1-10.1C134.25,155.64,137.65,156,137.25,156.64Zm31.8,4c3.4,2.3,3.8,2.8,3.4,6-1.4,11.3-26.9,67-30.6,67a19.53,19.53,0,0,1-4.9-3l-4.2-3,10.5-20.8c9.4-18.8,18.2-39.3,20-46.5.4-1.5,1-2.7,1.4-2.5S167,159.24,169.05,160.64Zm-40.7,6.4c.8,2.1-1.6,6.6-4.7,8.8-2.2,1.6-3.5,1.8-8.8,1.2l-6.2-.7,3.7-3.8C117.65,167.14,127.15,163.94,128.35,167Zm7.8,67.7,7.5,5.2-2.7,4.7c-1.5,2.5-3.4,5.7-4.3,7.1l-1.6,2.4-6.2-2.9c-3.4-1.7-6.9-3.8-7.8-4.8-1.5-1.7-1.5-2.2,1.2-8.1,3.3-7,4.4-8.7,5.6-8.7C128.25,229.64,132.05,231.94,136.15,234.74Zm-63.9,28.2c3.2,2.7,4.4,9.6,2.6,15-1.2,3.5-8.5,12.7-10.1,12.7-.4,0,.3-2.2,1.6-5,2.8-5.8,3.1-10.6.8-13.8-1.9-2.7-3.9-2.8-10.4-.3-2.7,1.1-5,1.7-5,1.4,0-1.5,7.5-9.3,10.3-10.7C66.45,260,69.15,260.24,72.25,262.94Z"/><path class="cls-1" d="M172,149.34a3.2,3.2,0,0,0,2.6,2.1c1.9.3,2.3-.1,2-1.5a3.2,3.2,0,0,0-2.6-2.1C172.05,147.54,171.65,147.94,172,149.34Z"/><path class="cls-1" d="M112.25,266.54c-10.4,4.3-6.4,19.1,5.1,19.1,3.1,0,8-4.7,9-8.4C128.15,269.84,119.85,263.44,112.25,266.54Z"/><path class="cls-1" d="M128.75,286.54a47.42,47.42,0,0,1-6.5,5.7c-1.8,1-1.6,1.5,3.9,7.7,18.1,20.7,48.3,37.5,79.6,44.3,12.1,2.7,44.9,2.7,57,0a130,130,0,0,0,46.6-19.7c6.8-4.7,12.6-9.9,11-9.9-.4,0-4.8,1.8-9.9,3.9-28.7,12.2-54.6,16.5-81.7,13.5-34.3-3.8-60-15.9-85-40l-10.5-10.2Z"/></g></g>
</svg>
