<svg xmlns="http://www.w3.org/2000/svg"
 viewBox="0 0 512 512"
 fill="currentColor">
<g id="clase"><g id="clase-2" data-name="clase"><path class="cls-1" d="M214.7,50.92c-6.1,2.3-9.5,7.2-10.6,15.1-.6,4.6-.4,5.3,2,7.5a7.49,7.49,0,0,1,2.6,5.4c0,2.6.6,3.3,4.2,4.9a58.66,58.66,0,0,1,7.5,4.1c2.6,1.8,3.4,1.9,4,.8a5.46,5.46,0,0,1,3.3-1.7c3-.4,7-6.9,7-11.6,0-3.4.3-3.7,6.3-4.7,4.7-.8,4.8-2.9.3-5a9.8,9.8,0,0,1-4.9-5.3,15.82,15.82,0,0,0-9-9.1C224.4,50.22,217.3,50,214.7,50.92Zm4,22.4c0,1.7-.4,2.8-1,2.4s-1-1.7-1-3.1.5-2.4,1-2.4S218.7,71.62,218.7,73.32Z"/><path class="cls-1" d="M203.3,89.52c-3.4,4.4-7.2,13.3-9.6,22-1.8,6.7-6.1,30.4-6.4,35.4-.1,1.9-.7,2.3-3.3,2.3-3.7,0-6.8,3.3-7.8,8.3-1.3,6.4-1.5,6.7-4.8,6.7a52.05,52.05,0,0,1-9.2-1.5c-16.8-4-36.1-2.7-49.1,3.4-21.2,9.9-26.1,29.3-15.8,62.2l3.6,11.5L98.7,245c-1.5,3.6-4.3,7.1-8.5,11-8.8,8.1-8.9,8.3-8.1,23.3.9,16.5-.3,23.3-5.6,32.2-3.9,6.4-4,7-2.9,10.6.9,3.2,2,4.3,5.6,6,5.1,2.4,5.4,3.5,2.4,8.6-2.9,4.8-2,10.1,1.9,11.6,3.1,1.2,24.7,1.8,25.7.7,1.3-1.2-.3-5.1-4.7-11.8-2.4-3.6-4.9-7.9-5.7-9.5-2.2-4.8-2.5-20.7-.7-31.3,1.9-11,4.4-16.6,9.4-21.4,3.8-3.6,20-14.7,30.6-20.9,6.4-3.8,10.7-8.5,15.6-17.2,3.5-6.3,4.5-7.1,3.5-2.9-.6,2.8-.3,3,10.2,7.9a286.88,286.88,0,0,0,26.8,10.4l16,5.2,13.7.1c8.5.1,13.8.5,13.8,1.1s-.5,3.7-1,7-1.5,13.7-2,23.2c-.9,17.6-1.9,21.8-6,27a10.56,10.56,0,0,0-2,5.5c0,3.6,4,7.8,7.3,7.8,4.2,0,5.2,2.4,2.8,6.3s-2.7,8.5-.8,11c2.6,3.4,27.1,4.4,28.4,1.1.6-1.6-3.2-8.4-9.3-16.7-9.7-13.1-8.1-25.8,7.1-57.2a138.13,138.13,0,0,1,6.3-12.3c.7-1,4.3.5,15.8,6.4,8.2,4.3,16.2,9.1,17.8,10.6,2.6,2.7,2.8,3.3,2.2,7.8a33.94,33.94,0,0,1-8,17.9c-3.2,3.8-3.7,4.9-3.1,7.8l.6,3.4-4.8-.6c-8.9-1.2-11,3.1-8.2,17,1.1,4.9,2.3,9.3,2.7,9.7,2,2,26.1-18.2,28.3-23.9.6-1.5,2.2-7.5,3.5-13.1s3.5-12.9,5-16c2.8-6.1,3.4-12.6,1.5-17.5-.6-1.5-3.7-5.8-6.9-9.5a157.89,157.89,0,0,1-10.7-14.7c-2.7-4.4-5-8.2-5.2-8.4s-1.6.7-3.1,2.1a39.46,39.46,0,0,1-5.7,4.4c-3.2,2.1-3.1,1.6,1.6-4.8,3.9-5.5,5.2-11.4,4.7-21.5a66.6,66.6,0,0,0-1.3-10.8c-.6-1.6-.5-1.7.4-.9.7.7,2.6,4.9,4.1,9.5s2.9,8.1,3,7.7c.3-5,13.3-44.5,15.3-46.4.8-.8,21.5,4.5,25.2,6.5a21.64,21.64,0,0,0,5.2,2.1c.7,0,2,1.2,3,2.7,4.7,7.7,8.8,9.1,17.1,5.8,3.2-1.3,4.3-2.7,7-8.1l3.3-6.6-3.7-7.2a89.88,89.88,0,0,0-4.5-8.1c-1.2-1.2-6.9.8-13.3,4.7-3.6,2.2-5.1,2.7-6,1.8-1.5-1.5,2.9-5.2,10.6-8.8,3.2-1.5,5.8-3.2,5.8-3.7s-1.8-4.8-4-9.5c-3.9-8.3-5-12.8-3-11.5.6.3,1-.4,1-1.7a21.71,21.71,0,0,0-5-13.1l-2.8-3.3,1.9-6.9c1-3.8,1.7-7,1.5-7.2-.6-.7-9.9,4.3-12.3,6.6a7.24,7.24,0,0,1-4.3,2.1c-1.7,0-2-.6-2-4.8l-.1-4.7-4.2,4.6c-4.1,4.4-4.5,4.6-11.5,5.3-16.8,1.7-34.1,9-50.5,21.4l-10.2,7.8-4.5-5.3c-3.6-4.2-5.6-5.6-9.7-6.9a26.45,26.45,0,0,1-10.1-5.9c-4.6-4.1-5-4.8-5.5-10.2-1.3-12.4-4.9-18.2-16.1-25.5C209,85.32,206.6,85.22,203.3,89.52Zm13.2,26.4a81.28,81.28,0,0,1,5.3,9.7c0,.6,3.3,3.5,7.2,6.4s9.1,6.9,11.4,8.7c3.9,3,4.5,3.2,7.3,2.2,2.5-1,3.4-.8,5.7.9a17.43,17.43,0,0,1,4.2,4.9c1.3,2.6,1.2,3-.9,4.7-4.1,3.3-6.8,3.3-10.8.1-2.3-1.9-3.6-3.8-3.4-4.9.2-1.4-2.9-4.3-11.8-10.8-6.6-4.9-12-9.4-12-10.1s-2-5.3-4.5-10.4c-4.9-10-4.9-10.1-3.7-10.1C211,107.22,213.7,111.12,216.5,115.92Zm121.7,25.5c2.4,9.7,5.5,18.8,8.1,24,2,3.9,2.1,4.7.8,5.2-1.9.7-4.7-3.8-8-13.4-1.4-4.1-3.1-8.8-3.8-10.4l-1.2-2.9-4.8,8.4c-2.6,4.6-5,9.6-5.3,11.1-.8,4-2.3,3.4-2.3-.8,0-2.4,1.2-5.6,3.4-9.3,6.3-10.3,7.4-14,7.4-23.9-.1-5.7.4-10.3,1.3-12.4,1.4-3.2,1.4-3,2.1,7.4A116.94,116.94,0,0,0,338.2,141.42Zm-104.7,4.9,5.7,4.1-5-.7c-5.1-.7-7.5-2.5-7.5-5.7C226.7,141.52,227.1,141.62,233.5,146.32Zm-3.8,16.2c9.9,15.6,11.8,20.2,9.8,24.4q-1.35,2.85-3.6,2.7c-1.2,0-5.2-.1-8.8-.2s-6.3-.6-6-1.1c.8-1.3-1.4-3.6-15.3-15.6-12.2-10.7-15.1-14.5-15.1-19.9,0-2.7.4-2.8,24-3.3l6.5-.2Zm49.2-5.7c23.4,8.1,37,12.4,47.8,15,10.2,2.5,13,3.7,11.8,5-1.2,1.1-26.2-4.8-40.8-9.7-18.8-6.2-33.3-12.1-33.8-13.7C263.3,151.62,264.6,151.82,278.9,156.82Zm-25.6,26.8c2.2,8.4,1.5,19-1.7,25.3-1.9,3.7-3.8,5.6-8.3,8.3l-5.8,3.4.6,7.6c.8,8.7,2.2,11.2,7.6,14,2.2,1.1,4,2.5,4,3,0,3.2-22.5,7.6-26.6,5.2-1.6-1-1.2-1.2,2.6-1.2,6-.1,15.3-2.3,15.8-3.8.2-.7-2.4-2.5-6-4.2-9.9-4.6-10.4-5.1-8.8-10.2l1.4-4.3.6,3.7c.8,4.5,2.6,6.8,5.2,6.8,1.6,0,1.9-.5,1.5-2.3-.3-1.2-.9-4.4-1.3-7s-1.3-5.1-2-5.4c-1.9-.7-1.7-3.2.7-9.6,1.6-4.1,2.9-5.9,4.9-6.7a20.81,20.81,0,0,0,5.7-4.3c5.8-6.2,6.8-14.5,2.8-24.1-2.2-5.5-2.3-6-.8-8.3l1.7-2.5,2.3,5.2A95.34,95.34,0,0,1,253.3,183.62Zm-75.1-9.8c.9,5.3,4.3,8.1,11.2,9.4,3.3.7,6.6,1.5,7.2,2s1.9,3.7,2.8,7.4c1.6,7.4,4.9,12.1,9.8,14.2l3.1,1.3-.9,7.3c-.5,4-1.6,10.7-2.4,14.8a110.62,110.62,0,0,0-2,12.6l-.5,5.1,5.9,1,5.8,1-5.6.2c-4.4.1-6-.3-7.4-1.9-1.8-2-1.8-2.5-.2-12.4.9-5.7,1.7-11.3,1.7-12.4,0-2.2.9-2-21.3-5.2-16.1-2.4-21.2-4.2-23.2-8-5.4-10.4-.1-33.9,8.5-38.2C176,169.32,177.4,169.72,178.2,173.82Zm171.6,1.4c3.8,2.1,1,7.6-3.1,6.2-3.1-1.1-3.7-3.4-1.4-5.6C347.1,173.92,347.3,173.92,349.8,175.22Z"/><path class="cls-1" d="M85,176.12c-7.8,2.6-21.1,11.1-24.9,15.7-4.9,6-7.9,13.4-10.9,27.3-1.5,6.8-3.5,14.3-4.6,16.7-2.8,6.7-9.5,16.1-16.8,23.8l-6.6,6.9,4-.7c6.1-1.1,15.5-5.8,20.8-10.5,2.6-2.4,4.7-3.7,4.7-3.1,0,4.9-12.3,21-20,26.3-2.5,1.7-2.4,1.8,5,1.4,13.2-.7,22.1-6.6,29.8-19.5,3.3-5.7,3.7-4.5,1.3,4l-1.8,6.7,2.6-2.2C82.9,256,87,243.22,84,218.62c-1.7-14.5-1.3-20.2,1.9-25.4,1.7-2.8,5.7-10.3,9.6-18.3C96.2,173.62,90.3,174.22,85,176.12Z"/><path class="cls-1" d="M154.4,245.12c-3.7,5.5-10.1,10.8-19.7,16.1l-8.5,4.7-.3,9.7-.2,9.7,9.6,10.1c12.4,13.1,16.2,18.8,17.4,26.3,1.4,8.3,3.1,9.9,10.2,9.2,3.2-.3,6-.1,6.3.4s-.1,2.2-1,3.8a18.19,18.19,0,0,0-1.5,6.6c0,2.9.5,3.7,2.8,4.6,3.1,1.3,22.8,1.8,25.5.7,1.6-.7,1.6-1,.3-4.3-3.1-7.3-13.1-20.6-21.6-28.8-12.6-12.2-21-25.4-21-33.2,0-1.4,1.6-6.7,3.5-11.7,3.8-9.6,6.3-21.3,5.2-24.1a6.83,6.83,0,0,0-2.5-2.6C157.2,241.42,156.6,241.82,154.4,245.12Z"/></g></g>
</svg>
